<svg width="124" height="26" viewBox="0 0 124 26" fill="none" xmlns="http://www.w3.org/2000/svg">
<path d="M0 0.416748H8.44037C9.33207 0.416748 10.2028 0.576671 11.0524 0.896517C11.9021 1.21636 12.6614 1.71067 13.3301 2.37944C13.9989 3.04821 14.532 3.89628 14.9294 4.92205C15.3268 5.94782 15.5254 7.16582 15.5254 8.57766C15.5254 9.9895 15.2977 11.151 14.8405 12.1525C14.3834 13.1557 13.7921 13.9843 13.0652 14.6386C12.3383 15.2928 11.5112 15.779 10.5856 16.0973C9.65999 16.4155 8.71661 16.5738 7.75545 16.5738H5.5553V22.1162C5.5553 22.4667 5.57953 22.8302 5.62799 23.2066C5.67646 23.5329 5.7233 23.8753 5.77176 24.2323C5.82022 24.5893 5.90422 24.9011 6.02376 25.1676H0.0355384C0.156692 24.8656 0.25523 24.5441 0.334384 24.2C0.411923 23.8559 0.476538 23.528 0.524999 23.2146C0.573461 22.8641 0.597692 22.5023 0.597692 22.1291V3.45528C0.597692 3.15321 0.573461 2.84628 0.524999 2.5329C0.476538 2.25505 0.416769 1.93359 0.344077 1.56528C0.271384 1.19698 0.156692 0.814132 0 0.416748ZM5.5553 12.684H7.28538C7.68114 12.684 8.0753 12.608 8.46622 12.4578C8.85714 12.3076 9.20607 12.0717 9.51137 11.7519C9.8183 11.432 10.0703 11.0137 10.269 10.4935C10.4677 9.97497 10.5662 9.3482 10.5662 8.61158C10.5662 8.14151 10.5178 7.65205 10.4224 7.14643C10.3271 6.6392 10.1543 6.17559 9.90876 5.75397C9.6616 5.33236 9.3466 4.98505 8.96214 4.71367C8.57768 4.44228 8.10276 4.30659 7.53738 4.30659H5.55369V12.684H5.5553Z" fill="white"/>
<path d="M16.9001 25.1337C17.0213 24.8316 17.0988 24.5101 17.136 24.166C17.1715 23.822 17.2151 23.4876 17.262 23.1613C17.2862 22.8107 17.3105 22.4553 17.3347 22.0935V3.41968C17.3105 3.06914 17.2862 2.7073 17.262 2.33415C17.2135 2.00784 17.1715 1.66861 17.136 1.31161C17.1005 0.956224 17.0213 0.633148 16.9001 0.343994H22.8367C22.6913 0.646071 22.5879 0.973993 22.5281 1.32938C22.4668 1.68476 22.4134 2.02076 22.365 2.33415C22.3165 2.70891 22.2923 3.07076 22.2923 3.41968V9.9329H29.3854V3.41968C29.3612 3.06914 29.337 2.7073 29.3127 2.33415C29.2643 2.00784 29.2191 1.66861 29.1771 1.31161C29.1351 0.956224 29.0527 0.633148 28.9315 0.343994H34.868C34.7469 0.646071 34.6532 0.967532 34.587 1.31161C34.5207 1.65568 34.4626 1.98361 34.4157 2.29699C34.3673 2.67176 34.3431 3.04491 34.3431 3.41807V22.0919C34.3431 22.4667 34.3673 22.822 34.4157 23.1597C34.4642 23.4617 34.5207 23.7897 34.587 24.145C34.6532 24.5004 34.7582 24.83 34.9036 25.1304H28.9315C29.0527 24.8283 29.1334 24.5069 29.1771 24.1628C29.2191 23.8187 29.2643 23.4843 29.3127 23.158C29.337 22.8075 29.3612 22.4521 29.3854 22.0903V14.834H22.2923V22.0903C22.2923 22.465 22.3165 22.8204 22.365 23.158C22.4134 23.4601 22.4732 23.788 22.5459 24.1434C22.6186 24.4988 22.7268 24.8283 22.8722 25.1288H16.9001V25.1337Z" fill="white"/>
<path d="M36.5513 12.6114C36.5513 10.8378 36.8162 9.18199 37.3461 7.64415C37.8759 6.1063 38.6158 4.77684 39.5656 3.65415C40.5154 2.53308 41.6317 1.6527 42.9143 1.013C44.1953 0.373313 45.5877 0.0534668 47.0933 0.0534668C48.7959 0.0534668 50.2707 0.428236 51.5211 1.17454C52.7714 1.92246 53.8149 2.89654 54.6533 4.09677C55.4917 5.297 56.1168 6.65069 56.5271 8.15946C56.9374 9.66822 57.1426 11.1754 57.1426 12.6825C57.1426 14.1897 56.9245 15.7469 56.49 17.2783C56.0554 18.8097 55.406 20.1892 54.5434 21.4121C53.6792 22.6365 52.5985 23.6316 51.3014 24.3973C50.0042 25.163 48.4857 25.5458 46.746 25.5458C45.0062 25.5458 43.5669 25.1565 42.2972 24.3795C41.0275 23.6009 39.9694 22.5881 39.1214 21.3394C38.2733 20.0907 37.6336 18.7014 37.1991 17.1684C36.7661 15.6371 36.5497 14.117 36.5497 12.6082L36.5513 12.6114ZM41.6349 12.5759C41.6349 13.3351 41.7254 14.1978 41.9063 15.1638C42.0872 16.1298 42.3958 17.036 42.8303 17.8873C43.2648 18.737 43.8238 19.4558 44.5071 20.0406C45.1904 20.6254 46.0142 20.9177 46.9818 20.9177C47.8283 20.9177 48.5649 20.6948 49.1933 20.249C49.8217 19.8031 50.3434 19.2151 50.7618 18.485C51.1786 17.7548 51.4984 16.9358 51.723 16.0248C51.9459 15.1137 52.059 14.1768 52.059 13.2108C52.059 12.4515 51.9653 11.5792 51.7779 10.5955C51.5905 9.61168 51.2949 8.68445 50.8894 7.80892C50.484 6.935 49.9412 6.19515 49.2579 5.59261C48.5746 4.99008 47.7507 4.688 46.7831 4.688C45.8155 4.688 44.9707 4.95292 44.3181 5.48438C43.6654 6.01584 43.1404 6.67653 42.7414 7.46646C42.3424 8.25638 42.0581 9.10769 41.8901 10.0171C41.7205 10.9282 41.6365 11.7811 41.6365 12.5775L41.6349 12.5759Z" fill="white"/>
<path d="M58.8241 0.416748H67.4809C68.3936 0.416748 69.2805 0.587979 70.1399 0.932055C70.9992 1.27613 71.7536 1.76398 72.403 2.39721C73.0524 3.03044 73.5742 3.77836 73.9715 4.64097C74.3689 5.50359 74.566 6.46636 74.566 7.52766C74.566 9.38535 74.1815 10.899 73.411 12.0701C72.6421 13.2397 71.6955 14.1265 70.5744 14.7307L74.4287 22.9093C74.5498 23.1872 74.6823 23.4586 74.8261 23.7235C74.9472 23.9399 75.1072 24.1823 75.3058 24.4472C75.5045 24.7121 75.7194 24.9544 75.9488 25.1709H69.8765L66.0739 15.7613H64.3794V22.1307C64.3794 22.4813 64.4036 22.8431 64.4521 23.2163C64.5006 23.5426 64.549 23.8834 64.5959 24.2388C64.6443 24.5942 64.7283 24.9059 64.8479 25.1709H58.879C59.0002 24.8688 59.0955 24.5473 59.1682 24.2033C59.2409 23.8592 59.3006 23.5313 59.3491 23.2179C59.3976 22.8673 59.4218 22.5055 59.4218 22.1323V3.45528C59.4218 3.15321 59.3976 2.84628 59.3491 2.5329C59.3006 2.25505 59.2409 1.93359 59.1682 1.56528C59.0955 1.19698 58.9808 0.814132 58.8241 0.416748ZM64.3794 11.7971H66.2904C66.6862 11.7971 67.0868 11.7099 67.489 11.5354C67.8912 11.361 68.2499 11.1009 68.5616 10.7568C68.8734 10.4127 69.127 9.97335 69.3192 9.43543C69.5115 8.89912 69.6084 8.27397 69.6084 7.5632C69.6084 7.23689 69.5486 6.88474 69.4275 6.50513C69.3063 6.12551 69.1238 5.77013 68.8766 5.43736C68.6295 5.1062 68.3177 4.83482 67.9397 4.6232C67.5617 4.41159 67.1126 4.30659 66.5957 4.30659H64.3778V11.7971H64.3794Z" fill="white"/>
<path d="M77.3541 25.1337C77.4995 24.893 77.611 24.5974 77.6885 24.2468C77.766 23.8963 77.8307 23.5651 77.8791 23.2518C77.9276 22.8786 77.9518 22.4925 77.9518 22.0935V3.45523C77.9518 3.03362 77.9276 2.62331 77.8791 2.22431C77.8307 1.87377 77.7709 1.53454 77.6982 1.20177C77.6255 0.870622 77.5237 0.596006 77.3913 0.37793H89.6779L90.492 5.64408C90.1415 5.40339 89.8039 5.20631 89.4792 5.05608C89.1529 4.90585 88.8524 4.80569 88.5746 4.75723C88.2483 4.68454 87.9527 4.64254 87.6877 4.63123H82.911V10.2043H86.2403C86.5667 10.2043 86.8849 10.1688 87.1999 10.0961C87.4777 10.0476 87.7766 9.96684 88.0948 9.85215C88.4146 9.73746 88.7248 9.584 89.0269 9.39015V15.1619C88.7248 14.9697 88.4146 14.8211 88.0948 14.7193C87.775 14.6175 87.4761 14.5416 87.1999 14.4931C86.8736 14.4205 86.5537 14.3849 86.2403 14.3849H82.911V20.7172H87.796C88.1223 20.7414 88.4292 20.7172 88.7183 20.6445C88.9962 20.5961 89.2821 20.5234 89.5777 20.4281C89.8733 20.3311 90.1544 20.1809 90.4193 19.9758L89.6779 25.1321H77.3557L77.3541 25.1337Z" fill="white"/>
<path d="M92.4984 23.2518V17.5011C93.0896 18.3685 93.7083 19.0373 94.3529 19.5074C94.9974 19.9774 95.6048 20.3215 96.1718 20.538C96.8115 20.8158 97.4496 20.966 98.0892 20.9903C100.26 20.9903 101.352 20.0986 101.364 18.3152C101.364 17.8694 101.228 17.4623 100.957 17.0956C100.685 16.7273 100.327 16.3784 99.8791 16.0472C99.4333 15.7161 98.9325 15.393 98.3768 15.0796C97.8211 14.7662 97.2735 14.4415 96.7307 14.1039C95.1024 13.0911 94.0007 11.9991 93.4289 10.8231C92.8554 9.64868 92.5695 8.34345 92.5695 6.91061C92.5695 5.96722 92.744 5.08199 93.0929 4.2533C93.4418 3.42461 93.9474 2.69769 94.6097 2.06769C95.272 1.43931 96.083 0.936922 97.0473 0.562153C98.0101 0.187384 99.1166 0 100.369 0C100.958 0.0242307 101.566 0.0904614 102.192 0.200307C102.709 0.29723 103.25 0.428076 103.817 0.59123C104.383 0.754384 104.913 1.00638 105.405 1.34561V7.32737C104.985 6.6893 104.486 6.19499 103.909 5.84607C103.333 5.49715 102.785 5.23707 102.27 5.06907C101.658 4.87684 101.026 4.76861 100.377 4.74438C99.619 4.74438 98.9826 4.93984 98.4656 5.33238C97.9487 5.7233 97.679 6.32907 97.6547 7.14968C97.6547 7.47437 97.7032 7.76999 97.8001 8.03491C97.897 8.29984 98.0618 8.56799 98.2976 8.83937C98.5335 9.11076 98.8614 9.39668 99.283 9.69876C99.7046 10.0008 100.225 10.332 100.839 10.6922C101.452 11.0654 102.079 11.4514 102.719 11.8488C103.359 12.2462 103.937 12.7228 104.452 13.2768C104.968 13.8309 105.389 14.4916 105.719 15.2557C106.048 16.0214 106.213 16.9454 106.213 18.0293C106.213 19.1875 106.018 20.2294 105.628 21.1583C105.237 22.0871 104.704 22.877 104.026 23.528C103.347 24.179 102.546 24.6798 101.622 25.0287C100.698 25.3777 99.7192 25.5537 98.6869 25.5537C97.8421 25.5537 97.0651 25.46 96.3527 25.2727C95.6403 25.0853 95.02 24.8688 94.4886 24.6217C93.9571 24.3745 93.5177 24.1209 93.1672 23.8624C92.8166 23.6024 92.5937 23.4004 92.4984 23.2567V23.2518Z" fill="white"/>
<path d="M107.552 5.52136L108.331 0.416748H123.259L124 5.52136C123.806 5.32751 123.535 5.16759 123.186 5.03997C122.835 4.91236 122.486 4.82513 122.136 4.77667C121.738 4.70397 121.333 4.66844 120.924 4.66844H118.246L118.282 21.7592C118.282 22.1824 118.312 22.6008 118.372 23.0111C118.42 23.3616 118.487 23.7348 118.571 24.1273C118.655 24.5199 118.782 24.8688 118.95 25.1709H112.581C112.773 24.8446 112.915 24.4843 113.006 24.0918C113.096 23.6993 113.166 23.3261 113.214 22.9756C113.263 22.5523 113.298 22.1469 113.322 21.7608V4.66844H110.626C110.203 4.66844 109.794 4.70559 109.395 4.77667C109.045 4.82513 108.699 4.90913 108.355 5.03028C108.011 5.15143 107.743 5.31459 107.551 5.51974L107.552 5.52136Z" fill="white"/>
</svg>
