<svg width="124" height="26" viewBox="0 0 124 26" fill="none" xmlns="http://www.w3.org/2000/svg">
<path d="M0 0.416748H8.44037C9.33207 0.416748 10.2028 0.576671 11.0524 0.896517C11.9021 1.21636 12.6614 1.71067 13.3301 2.37944C13.9989 3.04821 14.532 3.89628 14.9294 4.92205C15.3268 5.94782 15.5254 7.16582 15.5254 8.57766C15.5254 9.9895 15.2977 11.151 14.8405 12.1525C14.3834 13.1557 13.7921 13.9843 13.0652 14.6386C12.3383 15.2928 11.5112 15.779 10.5856 16.0973C9.65999 16.4155 8.71661 16.5738 7.75545 16.5738H5.5553V22.1162C5.5553 22.4667 5.57953 22.8302 5.62799 23.2066C5.67646 23.5329 5.7233 23.8753 5.77176 24.2323C5.82022 24.5893 5.90422 24.9011 6.02376 25.1676H0.0355384C0.156692 24.8656 0.25523 24.5441 0.334384 24.2C0.411923 23.8559 0.476538 23.528 0.524999 23.2146C0.573461 22.8641 0.597692 22.5023 0.597692 22.1291V3.45528C0.597692 3.15321 0.573461 2.84628 0.524999 2.5329C0.476538 2.25505 0.416769 1.93359 0.344077 1.56528C0.271384 1.19698 0.156692 0.814132 0 0.416748ZM5.5553 12.684H7.28538C7.68114 12.684 8.0753 12.608 8.46622 12.4578C8.85714 12.3076 9.20607 12.0717 9.51137 11.7519C9.8183 11.432 10.0703 11.0137 10.269 10.4935C10.4677 9.97497 10.5662 9.3482 10.5662 8.61158C10.5662 8.14151 10.5178 7.65205 10.4224 7.14643C10.3271 6.6392 10.1543 6.17559 9.90876 5.75397C9.6616 5.33236 9.3466 4.98505 8.96214 4.71367C8.57768 4.44228 8.10276 4.30659 7.53738 4.30659H5.55369V12.684H5.5553Z" fill="black"/>
<path d="M16.9004 25.1337C17.0215 24.8316 17.0991 24.5101 17.1362 24.166C17.1718 23.822 17.2154 23.4876 17.2622 23.1613C17.2865 22.8107 17.3107 22.4553 17.3349 22.0935V3.41968C17.3107 3.06914 17.2865 2.7073 17.2622 2.33415C17.2138 2.00784 17.1718 1.66861 17.1362 1.31161C17.1007 0.956224 17.0215 0.633148 16.9004 0.343994H22.8369C22.6915 0.646071 22.5882 0.973993 22.5284 1.32938C22.467 1.68476 22.4137 2.02076 22.3652 2.33415C22.3168 2.70891 22.2925 3.07076 22.2925 3.41968V9.9329H29.3857V3.41968C29.3615 3.06914 29.3372 2.7073 29.313 2.33415C29.2645 2.00784 29.2193 1.66861 29.1773 1.31161C29.1353 0.956224 29.0529 0.633148 28.9318 0.343994H34.8683C34.7471 0.646071 34.6534 0.967532 34.5872 1.31161C34.521 1.65568 34.4628 1.98361 34.416 2.29699C34.3675 2.67176 34.3433 3.04491 34.3433 3.41807V22.0919C34.3433 22.4667 34.3675 22.822 34.416 23.1597C34.4644 23.4617 34.521 23.7897 34.5872 24.145C34.6534 24.5004 34.7584 24.83 34.9038 25.1304H28.9318C29.0529 24.8283 29.1337 24.5069 29.1773 24.1628C29.2193 23.8187 29.2645 23.4843 29.313 23.158C29.3372 22.8075 29.3615 22.4521 29.3857 22.0903V14.834H22.2925V22.0903C22.2925 22.465 22.3168 22.8204 22.3652 23.158C22.4137 23.4601 22.4735 23.788 22.5462 24.1434C22.6188 24.4988 22.7271 24.8283 22.8725 25.1288H16.9004V25.1337Z" fill="black"/>
<path d="M36.5514 12.6114C36.5514 10.8378 36.8163 9.18199 37.3462 7.64415C37.876 6.1063 38.6159 4.77684 39.5657 3.65415C40.5156 2.53308 41.6318 1.6527 42.9144 1.013C44.1954 0.373313 45.5879 0.0534668 47.0934 0.0534668C48.796 0.0534668 50.2709 0.428236 51.5212 1.17454C52.7715 1.92246 53.815 2.89654 54.6534 4.09677C55.4918 5.297 56.1169 6.65069 56.5272 8.15946C56.9375 9.66822 57.1427 11.1754 57.1427 12.6825C57.1427 14.1897 56.9246 15.7469 56.4901 17.2783C56.0556 18.8097 55.4062 20.1892 54.5436 21.4121C53.6793 22.6365 52.5986 23.6316 51.3015 24.3973C50.0043 25.163 48.4859 25.5458 46.7461 25.5458C45.0063 25.5458 43.567 25.1565 42.2973 24.3795C41.0276 23.6009 39.9696 22.5881 39.1215 21.3394C38.2734 20.0907 37.6337 18.7014 37.1992 17.1684C36.7663 15.6371 36.5498 14.117 36.5498 12.6082L36.5514 12.6114ZM41.635 12.5759C41.635 13.3351 41.7255 14.1978 41.9064 15.1638C42.0873 16.1298 42.3959 17.036 42.8304 17.8873C43.265 18.737 43.8239 19.4558 44.5072 20.0406C45.1905 20.6254 46.0143 20.9177 46.9819 20.9177C47.8284 20.9177 48.565 20.6948 49.1934 20.249C49.8218 19.8031 50.3436 19.2151 50.7619 18.485C51.1787 17.7548 51.4986 16.9358 51.7231 16.0248C51.946 15.1137 52.0591 14.1768 52.0591 13.2108C52.0591 12.4515 51.9654 11.5792 51.778 10.5955C51.5906 9.61168 51.295 8.68445 50.8896 7.80892C50.4841 6.935 49.9413 6.19515 49.258 5.59261C48.5747 4.99008 47.7509 4.688 46.7833 4.688C45.8156 4.688 44.9708 4.95292 44.3182 5.48438C43.6656 6.01584 43.1406 6.67653 42.7416 7.46646C42.3426 8.25638 42.0583 9.10769 41.8903 10.0171C41.7206 10.9282 41.6366 11.7811 41.6366 12.5775L41.635 12.5759Z" fill="black"/>
<path d="M58.8242 0.416748H67.4811C68.3937 0.416748 69.2806 0.587979 70.14 0.932055C70.9994 1.27613 71.7537 1.76398 72.4031 2.39721C73.0525 3.03044 73.5743 3.77836 73.9717 4.64097C74.369 5.50359 74.5661 6.46636 74.5661 7.52766C74.5661 9.38535 74.1817 10.899 73.4111 12.0701C72.6422 13.2397 71.6956 14.1265 70.5745 14.7307L74.4288 22.9093C74.55 23.1872 74.6824 23.4586 74.8262 23.7235C74.9474 23.9399 75.1073 24.1823 75.306 24.4472C75.5047 24.7121 75.7195 24.9544 75.9489 25.1709H69.8767L66.0741 15.7613H64.3795V22.1307C64.3795 22.4813 64.4037 22.8431 64.4522 23.2163C64.5007 23.5426 64.5491 23.8834 64.596 24.2388C64.6444 24.5942 64.7284 24.9059 64.848 25.1709H58.8791C59.0003 24.8688 59.0956 24.5473 59.1683 24.2033C59.241 23.8592 59.3008 23.5313 59.3492 23.2179C59.3977 22.8673 59.4219 22.5055 59.4219 22.1323V3.45528C59.4219 3.15321 59.3977 2.84628 59.3492 2.5329C59.3008 2.25505 59.241 1.93359 59.1683 1.56528C59.0956 1.19698 58.9809 0.814132 58.8242 0.416748ZM64.3795 11.7971H66.2905C66.6863 11.7971 67.0869 11.7099 67.4891 11.5354C67.8914 11.361 68.25 11.1009 68.5617 10.7568C68.8735 10.4127 69.1271 9.97335 69.3194 9.43543C69.5116 8.89912 69.6085 8.27397 69.6085 7.5632C69.6085 7.23689 69.5487 6.88474 69.4276 6.50513C69.3064 6.12551 69.1239 5.77013 68.8767 5.43736C68.6296 5.1062 68.3178 4.83482 67.9398 4.6232C67.5618 4.41159 67.1127 4.30659 66.5958 4.30659H64.3779V11.7971H64.3795Z" fill="black"/>
<path d="M77.354 25.1337C77.4994 24.893 77.6109 24.5974 77.6884 24.2468C77.7659 23.8963 77.8305 23.5651 77.879 23.2518C77.9275 22.8786 77.9517 22.4925 77.9517 22.0935V3.45523C77.9517 3.03362 77.9275 2.62331 77.879 2.22431C77.8305 1.87377 77.7708 1.53454 77.6981 1.20177C77.6254 0.870622 77.5236 0.596006 77.3912 0.37793H89.6778L90.4919 5.64408C90.1414 5.40339 89.8038 5.20631 89.4791 5.05608C89.1528 4.90585 88.8523 4.80569 88.5745 4.75723C88.2481 4.68454 87.9525 4.64254 87.6876 4.63123H82.9109V10.2043H86.2402C86.5665 10.2043 86.8848 10.1688 87.1998 10.0961C87.4776 10.0476 87.7765 9.96684 88.0947 9.85215C88.4145 9.73746 88.7247 9.584 89.0268 9.39015V15.1619C88.7247 14.9697 88.4145 14.8211 88.0947 14.7193C87.7748 14.6175 87.476 14.5416 87.1998 14.4931C86.8735 14.4205 86.5536 14.3849 86.2402 14.3849H82.9109V20.7172H87.7958C88.1221 20.7414 88.4291 20.7172 88.7182 20.6445C88.9961 20.5961 89.282 20.5234 89.5776 20.4281C89.8732 20.3311 90.1543 20.1809 90.4192 19.9758L89.6778 25.1321H77.3556L77.354 25.1337Z" fill="black"/>
<path d="M92.4985 23.2518V17.5011C93.0898 18.3685 93.7085 19.0373 94.353 19.5074C94.9975 19.9774 95.6049 20.3215 96.1719 20.538C96.8116 20.8158 97.4497 20.966 98.0894 20.9903C100.26 20.9903 101.352 20.0986 101.364 18.3152C101.364 17.8694 101.228 17.4623 100.957 17.0956C100.685 16.7273 100.327 16.3784 99.8792 16.0472C99.4334 15.7161 98.9326 15.393 98.3769 15.0796C97.8212 14.7662 97.2736 14.4415 96.7308 14.1039C95.1025 13.0911 94.0008 11.9991 93.429 10.8231C92.8555 9.64868 92.5696 8.34345 92.5696 6.91061C92.5696 5.96722 92.7441 5.08199 93.093 4.2533C93.4419 3.42461 93.9475 2.69769 94.6098 2.06769C95.2721 1.43931 96.0831 0.936922 97.0475 0.562153C98.0102 0.187384 99.1168 0 100.369 0C100.958 0.0242307 101.566 0.0904614 102.192 0.200307C102.709 0.29723 103.251 0.428076 103.818 0.59123C104.383 0.754384 104.913 1.00638 105.405 1.34561V7.32737C104.985 6.6893 104.486 6.19499 103.91 5.84607C103.333 5.49715 102.785 5.23707 102.27 5.06907C101.658 4.87684 101.026 4.76861 100.377 4.74438C99.6191 4.74438 98.9827 4.93984 98.4658 5.33238C97.9488 5.7233 97.6791 6.32907 97.6548 7.14968C97.6548 7.47437 97.7033 7.76999 97.8002 8.03491C97.8971 8.29984 98.0619 8.56799 98.2978 8.83937C98.5336 9.11076 98.8615 9.39668 99.2831 9.69876C99.7048 10.0008 100.225 10.332 100.839 10.6922C101.453 11.0654 102.079 11.4514 102.719 11.8488C103.359 12.2462 103.937 12.7228 104.452 13.2768C104.968 13.8309 105.389 14.4916 105.719 15.2557C106.048 16.0214 106.213 16.9454 106.213 18.0293C106.213 19.1875 106.018 20.2294 105.628 21.1583C105.237 22.0871 104.704 22.877 104.026 23.528C103.347 24.179 102.546 24.6798 101.622 25.0287C100.698 25.3777 99.7193 25.5537 98.6871 25.5537C97.8422 25.5537 97.0652 25.46 96.3528 25.2727C95.6405 25.0853 95.0201 24.8688 94.4887 24.6217C93.9572 24.3745 93.5178 24.1209 93.1673 23.8624C92.8168 23.6024 92.5938 23.4004 92.4985 23.2567V23.2518Z" fill="black"/>
<path d="M107.552 5.52136L108.331 0.416748H123.259L124 5.52136C123.806 5.32751 123.535 5.16759 123.186 5.03997C122.836 4.91236 122.487 4.82513 122.136 4.77667C121.739 4.70397 121.333 4.66844 120.925 4.66844H118.246L118.282 21.7592C118.282 22.1824 118.312 22.6008 118.372 23.0111C118.421 23.3616 118.487 23.7348 118.571 24.1273C118.655 24.5199 118.783 24.8688 118.951 25.1709H112.581C112.773 24.8446 112.915 24.4843 113.006 24.0918C113.096 23.6993 113.166 23.3261 113.214 22.9756C113.263 22.5523 113.298 22.1469 113.323 21.7608V4.66844H110.626C110.203 4.66844 109.795 4.70559 109.396 4.77667C109.045 4.82513 108.699 4.90913 108.355 5.03028C108.011 5.15143 107.743 5.31459 107.551 5.51974L107.552 5.52136Z" fill="black"/>
</svg>
