<svg width="32" height="32" viewBox="0 0 32 32" fill="none" xmlns="http://www.w3.org/2000/svg">
<path d="M29.1971 11.8533L27.7971 6.02667C27.5037 4.82667 26.4637 4 25.2504 4H6.73041C5.53041 4 4.47708 4.84 4.19708 6.02667L2.79708 11.8533C2.47708 13.2133 2.77041 14.6 3.62375 15.6933C3.73041 15.84 3.87708 15.9467 3.99708 16.08V25.3333C3.99708 26.8 5.19708 28 6.66375 28H25.3304C26.7971 28 27.9971 26.8 27.9971 25.3333V16.08C28.1171 15.96 28.2637 15.84 28.3704 15.7067C29.2237 14.6133 29.5304 13.2133 29.1971 11.8533ZM25.2104 6.65333L26.6104 12.48C26.7437 13.04 26.6237 13.6 26.2771 14.04C26.0904 14.28 25.6904 14.6667 25.0237 14.6667C24.2104 14.6667 23.5037 14.0133 23.4104 13.1467L22.6371 6.66667L25.2104 6.65333ZM17.3304 6.66667H19.9437L20.6637 12.6933C20.7304 13.2133 20.5704 13.7333 20.2237 14.12C19.9304 14.4667 19.5037 14.6667 18.9571 14.6667C18.0637 14.6667 17.3304 13.88 17.3304 12.92V6.66667ZM11.3171 12.6933L12.0504 6.66667H14.6637V12.92C14.6637 13.88 13.9304 14.6667 12.9437 14.6667C12.4904 14.6667 12.0771 14.4667 11.7571 14.12C11.4237 13.7333 11.2637 13.2133 11.3171 12.6933ZM5.38375 12.48L6.73041 6.66667H9.35708L8.58375 13.1467C8.47708 14.0133 7.78375 14.6667 6.97041 14.6667C6.31708 14.6667 5.90375 14.28 5.73041 14.04C5.37041 13.6133 5.25041 13.04 5.38375 12.48ZM6.66375 25.3333V17.2933C6.77041 17.3067 6.86375 17.3333 6.97041 17.3333C8.13041 17.3333 9.18375 16.8533 9.95708 16.0667C10.7571 16.8667 11.8237 17.3333 13.0371 17.3333C14.1971 17.3333 15.2371 16.8533 16.0104 16.0933C16.7971 16.8533 17.8637 17.3333 19.0637 17.3333C20.1837 17.3333 21.2504 16.8667 22.0504 16.0667C22.8237 16.8533 23.8771 17.3333 25.0371 17.3333C25.1437 17.3333 25.2371 17.3067 25.3437 17.2933V25.3333H6.66375Z" fill="black"/>
</svg>
