<svg width="32" height="32" viewBox="0 0 32 32" fill="none" xmlns="http://www.w3.org/2000/svg">
<path d="M29.1968 11.8533L27.7968 6.02667C27.5035 4.82667 26.4635 4 25.2502 4H6.73017C5.53017 4 4.47684 4.84 4.19684 6.02667L2.79683 11.8533C2.47683 13.2133 2.77017 14.6 3.6235 15.6933C3.73017 15.84 3.87684 15.9467 3.99684 16.08V25.3333C3.99684 26.8 5.19684 28 6.6635 28H25.3302C26.7968 28 27.9968 26.8 27.9968 25.3333V16.08C28.1168 15.96 28.2635 15.84 28.3702 15.7067C29.2235 14.6133 29.5302 13.2133 29.1968 11.8533ZM25.2102 6.65333L26.6102 12.48C26.7435 13.04 26.6235 13.6 26.2768 14.04C26.0902 14.28 25.6902 14.6667 25.0235 14.6667C24.2102 14.6667 23.5035 14.0133 23.4102 13.1467L22.6368 6.66667L25.2102 6.65333ZM17.3302 6.66667H19.9435L20.6635 12.6933C20.7302 13.2133 20.5702 13.7333 20.2235 14.12C19.9302 14.4667 19.5035 14.6667 18.9568 14.6667C18.0635 14.6667 17.3302 13.88 17.3302 12.92V6.66667ZM11.3168 12.6933L12.0502 6.66667H14.6635V12.92C14.6635 13.88 13.9302 14.6667 12.9435 14.6667C12.4902 14.6667 12.0768 14.4667 11.7568 14.12C11.4235 13.7333 11.2635 13.2133 11.3168 12.6933ZM5.3835 12.48L6.73017 6.66667H9.35684L8.5835 13.1467C8.47684 14.0133 7.7835 14.6667 6.97017 14.6667C6.31684 14.6667 5.9035 14.28 5.73017 14.04C5.37017 13.6133 5.25017 13.04 5.3835 12.48ZM6.6635 25.3333V17.2933C6.77017 17.3067 6.8635 17.3333 6.97017 17.3333C8.13017 17.3333 9.1835 16.8533 9.95683 16.0667C10.7568 16.8667 11.8235 17.3333 13.0368 17.3333C14.1968 17.3333 15.2368 16.8533 16.0102 16.0933C16.7968 16.8533 17.8635 17.3333 19.0635 17.3333C20.1835 17.3333 21.2502 16.8667 22.0502 16.0667C22.8235 16.8533 23.8768 17.3333 25.0368 17.3333C25.1435 17.3333 25.2368 17.3067 25.3435 17.2933V25.3333H6.6635Z" fill="white"/>
</svg>
