<svg width="172" height="54" viewBox="0 0 172 54" fill="none" xmlns="http://www.w3.org/2000/svg">
<rect x="1" y="1" width="170" height="52" rx="26" stroke="#2D2D2D" stroke-width="2"/>
<path d="M34.808 23.848V28.024H32.48V17.584H34.808V21.856H37.208V17.152H39.56V28.168H37.208V23.848H34.808ZM22.208 18.448H30.56C30.56 23.56 27.848 26.992 22.448 28.912L21.272 27.112C25.448 25.696 27.584 23.464 27.968 20.44H22.208V18.448ZM27.584 36.616H40.352V38.584H25.136V32.8H37.136V31.048H25.088V29.104H39.56V34.648H27.584V36.616ZM45.4941 26.944V31.72C48.8301 31.696 51.4221 31.576 54.3981 31.072L54.6141 33.088C51.3741 33.64 48.5661 33.76 44.7741 33.76H43.0701V24.952H50.3181V21.088H43.0221V19.096H52.7421V26.944H45.4941ZM57.7821 17.128H60.2541V38.872H57.7821V27.304H53.9901V25.264H57.7821V17.128ZM67.1003 27.136V31.696C70.5323 31.672 73.5323 31.504 76.9643 30.952L77.2283 32.968C73.5083 33.616 70.2683 33.736 66.4523 33.736H64.6043V25.144H72.1643V21.112H64.5563V19.096H74.6603V27.136H67.1003ZM78.7643 17.128H81.2603V38.896H78.7643V17.128ZM104.353 36.592V34.192H95.161V36.592H104.353ZM104.353 32.272V29.824H106.801V38.584H92.713V29.824H95.161V32.272H104.353ZM94.801 26.248C96.673 26.248 98.065 25.024 98.065 23.2C98.065 21.352 96.673 20.176 94.801 20.176C92.881 20.176 91.513 21.352 91.513 23.2C91.513 25.024 92.881 26.248 94.801 26.248ZM104.329 17.176H106.801V28.792H104.329V24.184H100.321C99.889 26.632 97.681 28.288 94.801 28.288C91.537 28.288 89.137 26.2 89.137 23.2C89.137 20.224 91.537 18.136 94.801 18.136C97.657 18.136 99.841 19.744 100.321 22.168H104.329V17.176ZM120.943 34.264H129.559V36.304H109.927V34.264H118.471V30.568H112.303V23.584H124.783V20.68H112.255V18.688H127.231V25.552H114.727V28.576H127.711V30.568H120.943V34.264ZM148.429 27.4V29.392H133.405V19.072H148.261V21.088H135.877V27.4H148.429ZM131.005 34.024H150.661V36.064H131.005V34.024Z" fill="#2D2D2D"/>
</svg>
