<svg width="172" height="54" viewBox="0 0 172 54" fill="none" xmlns="http://www.w3.org/2000/svg">
<rect x="1" y="1" width="170" height="52" rx="26" stroke="white" stroke-width="2"/>
<path d="M37.28 17.056H39.656V28.168H37.28V17.056ZM34.136 21.784H38V23.8H34.136V21.784ZM32.48 17.464H34.832V28.024H32.48V17.464ZM27.992 18.376H30.536C30.536 23.536 27.776 26.992 22.328 28.936L21.152 27.088C25.832 25.528 27.992 22.864 27.992 19.312V18.376ZM22.088 18.376H29.048V20.368H22.088V18.376ZM24.992 29.128H39.656V34.744H27.536V37.648H25.04V32.872H37.208V31.096H24.992V29.128ZM25.04 36.736H40.448V38.728H25.04V36.736ZM57.8301 17.032H60.3261V39.016H57.8301V17.032ZM53.9901 25.24H58.3821V27.28H53.9901V25.24ZM42.9501 31.768H44.6781C48.4221 31.768 51.2061 31.672 54.3981 31.096L54.6381 33.16C51.3501 33.712 48.4941 33.856 44.6781 33.856H42.9501V31.768ZM42.9021 19H52.7421V26.944H45.4461V32.392H42.9501V24.928H50.2701V21.04H42.9021V19ZM78.8363 17.032H81.3563V39.016H78.8363V17.032ZM64.4843 31.744H66.3563C70.1243 31.744 73.3163 31.6 77.0123 30.976L77.2763 33.016C73.4843 33.664 70.2203 33.808 66.3563 33.808H64.4843V31.744ZM64.4363 19H74.6603V27.136H67.0283V32.512H64.4843V25.12H72.1163V21.04H64.4363V19ZM99.769 22.12H105.481V24.16H99.769V22.12ZM94.729 18.016C98.017 18.016 100.441 20.152 100.441 23.176C100.441 26.2 98.017 28.312 94.729 28.312C91.441 28.312 89.017 26.2 89.017 23.176C89.017 20.152 91.441 18.016 94.729 18.016ZM94.729 20.128C92.809 20.128 91.417 21.328 91.417 23.176C91.417 25 92.809 26.224 94.729 26.224C96.649 26.224 98.017 25 98.017 23.176C98.017 21.328 96.649 20.128 94.729 20.128ZM104.377 17.056H106.897V28.84H104.377V17.056ZM92.617 29.872H95.113V32.32H104.401V29.872H106.897V38.728H92.617V29.872ZM95.113 34.288V36.712H104.401V34.288H95.113ZM109.807 34.36H129.679V36.424H109.807V34.36ZM118.447 29.896H120.943V35.2H118.447V29.896ZM112.135 18.592H127.303V25.528H114.679V29.608H112.183V23.536H124.807V20.608H112.135V18.592ZM112.183 28.576H127.807V30.616H112.183V28.576ZM133.309 27.4H148.525V29.416H133.309V27.4ZM130.885 34.096H150.757V36.16H130.885V34.096ZM133.309 18.976H148.333V21.04H135.805V28.264H133.309V18.976Z" fill="white"/>
</svg>
